<svg width="250" height="80" viewBox="0 0 250 58" fill="none" xmlns="http://www.w3.org/2000/svg">
<g filter="url(#filter0_d)">
<path d="M15.3203 42H11.2656V7.33594H15.3203V42ZM31.2109 42.4688C28.6797 42.4688 26.8828 41.8516 25.8203 40.6172C24.7578 39.3828 24.1953 37.3906 24.1328 34.6406V19.1953H20.3125L20.4766 16.6172L24.1094 16.2891L25.4453 10.4062L28.0234 10.3125V16.2891H35.1719V19.1953H28.0234V33.9375C28.0234 35.8906 28.3203 37.2656 28.9141 38.0625C29.5078 38.8594 30.5234 39.2578 31.9609 39.2578C32.4766 39.2578 33.5938 39.1328 35.3125 38.8828L35.4766 41.9766C33.6172 42.3047 32.1953 42.4688 31.2109 42.4688ZM67.5625 39.8672L56.9219 15.1172L56.0312 12.75L56.1953 21.2344V42H52.3984V7.33594H57.6484L69.7188 34.9453L81.6719 7.33594H86.7812V42H82.8438V21.1406L83.0078 12.8438L82.1406 15.2109L71.5234 39.8672H67.5625ZM109.07 21.0469C107.93 19.6719 106.359 18.9844 104.359 18.9844C102.359 18.9844 100.727 19.6953 99.4609 21.1172C98.1953 22.5234 97.4531 24.4531 97.2344 26.9062H110.805C110.805 24.3594 110.227 22.4062 109.07 21.0469ZM105.133 42.5391C101.398 42.5391 98.4531 41.3516 96.2969 38.9766C94.1562 36.6016 93.0859 33.3516 93.0859 29.2266C93.0859 25.2422 94.125 22.0156 96.2031 19.5469C98.2812 17.0625 101.016 15.7969 104.406 15.75C107.594 15.75 110.117 16.8438 111.977 19.0312C113.852 21.2031 114.789 24.1094 114.789 27.75C114.789 27.9375 114.781 28.2812 114.766 28.7812C114.766 29.2812 114.766 29.6406 114.766 29.8594H97.1172C97.1641 32.7812 97.9141 35.0625 99.3672 36.7031C100.836 38.3281 102.805 39.1406 105.273 39.1406C107.992 39.1406 110.719 38.4219 113.453 36.9844L114.062 40.1484C111.453 41.7422 108.477 42.5391 105.133 42.5391Z" fill="#A0F7B8"/>
<path d="M15.3203 42V43H16.3203V42H15.3203ZM11.2656 42H10.2656V43H11.2656V42ZM11.2656 7.33594V6.33594H10.2656V7.33594H11.2656ZM15.3203 7.33594H16.3203V6.33594H15.3203V7.33594ZM15.3203 41H11.2656V43H15.3203V41ZM12.2656 42V7.33594H10.2656V42H12.2656ZM11.2656 8.33594H15.3203V6.33594H11.2656V8.33594ZM14.3203 7.33594V42H16.3203V7.33594H14.3203ZM24.1328 34.6406H23.1328V34.652L23.1331 34.6633L24.1328 34.6406ZM24.1328 19.1953H25.1328V18.1953H24.1328V19.1953ZM20.3125 19.1953L19.3145 19.1318L19.2468 20.1953H20.3125V19.1953ZM20.4766 16.6172L20.3866 15.6212L19.533 15.6983L19.4786 16.5537L20.4766 16.6172ZM24.1094 16.2891L24.1993 17.285L24.9235 17.2196L25.0845 16.5105L24.1094 16.2891ZM25.4453 10.4062L25.409 9.40691L24.6404 9.43486L24.4701 10.1848L25.4453 10.4062ZM28.0234 10.3125H29.0234V9.27548L27.9871 9.31316L28.0234 10.3125ZM28.0234 16.2891H27.0234V17.2891H28.0234V16.2891ZM35.1719 16.2891H36.1719V15.2891H35.1719V16.2891ZM35.1719 19.1953V20.1953H36.1719V19.1953H35.1719ZM28.0234 19.1953V18.1953H27.0234V19.1953H28.0234ZM35.3125 38.8828L36.3111 38.8299L36.2531 37.7355L35.1686 37.8932L35.3125 38.8828ZM35.4766 41.9766L35.6503 42.9613L36.522 42.8075L36.4752 41.9236L35.4766 41.9766ZM31.2109 41.4688C28.8099 41.4688 27.3662 40.8803 26.5782 39.9648L25.0624 41.2696C26.3994 42.8228 28.5495 43.4688 31.2109 43.4688V41.4688ZM26.5782 39.9648C25.7405 38.9916 25.1931 37.2823 25.1326 34.6179L23.1331 34.6633C23.1975 37.4989 23.7752 39.7741 25.0624 41.2696L26.5782 39.9648ZM25.1328 34.6406V19.1953H23.1328V34.6406H25.1328ZM24.1328 18.1953H20.3125V20.1953H24.1328V18.1953ZM21.3105 19.2588L21.4745 16.6807L19.4786 16.5537L19.3145 19.1318L21.3105 19.2588ZM20.5665 17.6131L24.1993 17.285L24.0194 15.2931L20.3866 15.6212L20.5665 17.6131ZM25.0845 16.5105L26.4205 10.6277L24.4701 10.1848L23.1342 16.0676L25.0845 16.5105ZM25.4817 11.4056L28.0598 11.3118L27.9871 9.31316L25.409 9.40691L25.4817 11.4056ZM27.0234 10.3125V16.2891H29.0234V10.3125H27.0234ZM28.0234 17.2891H35.1719V15.2891H28.0234V17.2891ZM34.1719 16.2891V19.1953H36.1719V16.2891H34.1719ZM35.1719 18.1953H28.0234V20.1953H35.1719V18.1953ZM27.0234 19.1953V33.9375H29.0234V19.1953H27.0234ZM27.0234 33.9375C27.0234 35.9307 27.3143 37.5892 28.1122 38.66L29.7159 37.465C29.3263 36.9421 29.0234 35.8506 29.0234 33.9375H27.0234ZM28.1122 38.66C28.9686 39.8093 30.3561 40.2578 31.9609 40.2578V38.2578C30.6908 38.2578 30.0471 37.9094 29.7159 37.465L28.1122 38.66ZM31.9609 40.2578C32.5629 40.2578 33.7559 40.1197 35.4564 39.8724L35.1686 37.8932C33.4316 38.1459 32.3902 38.2578 31.9609 38.2578V40.2578ZM34.3139 38.9358L34.478 42.0295L36.4752 41.9236L36.3111 38.8299L34.3139 38.9358ZM35.3028 40.9918C33.4588 41.3172 32.106 41.4688 31.2109 41.4688V43.4688C32.2846 43.4688 33.7756 43.2922 35.6503 42.9613L35.3028 40.9918ZM67.5625 39.8672L66.6438 40.2622L66.9039 40.8672H67.5625V39.8672ZM56.9219 15.1172L55.9859 15.4693L55.9941 15.4909L56.0032 15.5122L56.9219 15.1172ZM56.0312 12.75L56.9672 12.3979L55.0314 12.7693L56.0312 12.75ZM56.1953 21.2344H57.1953V21.2247L57.1951 21.215L56.1953 21.2344ZM56.1953 42V43H57.1953V42H56.1953ZM52.3984 42H51.3984V43H52.3984V42ZM52.3984 7.33594V6.33594H51.3984V7.33594H52.3984ZM57.6484 7.33594L58.5647 6.93536L58.3026 6.33594H57.6484V7.33594ZM69.7188 34.9453L68.8025 35.3459L69.7232 37.452L70.6364 35.3426L69.7188 34.9453ZM81.6719 7.33594V6.33594H81.0151L80.7542 6.93864L81.6719 7.33594ZM86.7812 7.33594H87.7812V6.33594H86.7812V7.33594ZM86.7812 42V43H87.7812V42H86.7812ZM82.8438 42H81.8438V43H82.8438V42ZM82.8438 21.1406L81.8439 21.1209L81.8438 21.1307V21.1406H82.8438ZM83.0078 12.8438L84.0076 12.8635L82.0688 12.4998L83.0078 12.8438ZM82.1406 15.2109L83.0591 15.6064L83.0701 15.581L83.0796 15.5549L82.1406 15.2109ZM71.5234 39.8672V40.8672H72.1816L72.4419 40.2627L71.5234 39.8672ZM68.4812 39.4722L57.8406 14.7222L56.0032 15.5122L66.6438 40.2622L68.4812 39.4722ZM57.8578 14.765L56.9672 12.3979L55.0953 13.1021L55.9859 15.4693L57.8578 14.765ZM55.0314 12.7693L55.1955 21.2537L57.1951 21.215L57.0311 12.7307L55.0314 12.7693ZM55.1953 21.2344V42H57.1953V21.2344H55.1953ZM56.1953 41H52.3984V43H56.1953V41ZM53.3984 42V7.33594H51.3984V42H53.3984ZM52.3984 8.33594H57.6484V6.33594H52.3984V8.33594ZM56.7322 7.73651L68.8025 35.3459L70.635 34.5447L58.5647 6.93536L56.7322 7.73651ZM70.6364 35.3426L82.5896 7.73324L80.7542 6.93864L68.8011 34.548L70.6364 35.3426ZM81.6719 8.33594H86.7812V6.33594H81.6719V8.33594ZM85.7812 7.33594V42H87.7812V7.33594H85.7812ZM86.7812 41H82.8438V43H86.7812V41ZM83.8438 42V21.1406H81.8438V42H83.8438ZM83.8436 21.1604L84.0076 12.8635L82.008 12.824L81.8439 21.1209L83.8436 21.1604ZM82.0688 12.4998L81.2016 14.867L83.0796 15.5549L83.9468 13.1877L82.0688 12.4998ZM81.2222 14.8154L70.605 39.4717L72.4419 40.2627L83.0591 15.6064L81.2222 14.8154ZM71.5234 38.8672H67.5625V40.8672H71.5234V38.8672ZM109.07 21.0469L108.301 21.6854L108.309 21.6948L109.07 21.0469ZM99.4609 21.1172L100.204 21.7862L100.208 21.7821L99.4609 21.1172ZM97.2344 26.9062L96.2383 26.8174L96.1412 27.9062H97.2344V26.9062ZM110.805 26.9062V27.9062H111.805V26.9062H110.805ZM96.2969 38.9766L95.5541 39.6461L95.5565 39.6488L96.2969 38.9766ZM96.2031 19.5469L96.9682 20.1909L96.9702 20.1885L96.2031 19.5469ZM104.406 15.75V14.7499L104.392 14.7501L104.406 15.75ZM111.977 19.0312L111.215 19.6789L111.22 19.6847L111.977 19.0312ZM114.766 28.7812L113.766 28.75L113.766 28.7656V28.7812H114.766ZM114.766 29.8594V30.8594H115.766V29.8594H114.766ZM97.1172 29.8594V28.8594H96.101L96.1173 29.8754L97.1172 29.8594ZM99.3672 36.7031L98.6186 37.3662L98.6253 37.3737L99.3672 36.7031ZM113.453 36.9844L114.435 36.7953L114.18 35.4723L112.988 36.0992L113.453 36.9844ZM114.062 40.1484L114.584 41.0018L115.176 40.6403L115.044 39.9593L114.062 40.1484ZM109.84 20.4084C108.485 18.7752 106.617 17.9844 104.359 17.9844V19.9844C106.102 19.9844 107.374 20.5685 108.301 21.6853L109.84 20.4084ZM104.359 17.9844C102.09 17.9844 100.18 18.8053 98.714 20.4523L100.208 21.7821C101.273 20.5853 102.628 19.9844 104.359 19.9844V17.9844ZM98.7176 20.4482C97.2688 22.058 96.4705 24.2138 96.2383 26.8174L98.2304 26.9951C98.4358 24.6924 99.1218 22.9888 100.204 21.7862L98.7176 20.4482ZM97.2344 27.9062H110.805V25.9062H97.2344V27.9062ZM111.805 26.9062C111.805 24.2218 111.196 22.0029 109.832 20.399L108.309 21.6948C109.257 22.8096 109.805 24.497 109.805 26.9062H111.805ZM105.133 41.5391C101.63 41.5391 98.9723 40.4357 97.0373 38.3044L95.5565 39.6488C97.9339 42.2674 101.167 43.5391 105.133 43.5391V41.5391ZM97.0397 38.3071C95.1082 36.1641 94.0859 33.1781 94.0859 29.2266H92.0859C92.0859 33.525 93.2043 37.0391 95.5541 39.6461L97.0397 38.3071ZM94.0859 29.2266C94.0859 25.4206 95.0749 22.4399 96.9682 20.1909L95.4381 18.9029C93.1751 21.5913 92.0859 25.0637 92.0859 29.2266H94.0859ZM96.9702 20.1885C98.8516 17.9392 101.305 16.793 104.42 16.7499L104.392 14.7501C100.726 14.8008 97.7109 16.1858 95.4361 18.9053L96.9702 20.1885ZM104.406 16.75C107.337 16.75 109.568 17.7413 111.215 19.6789L112.739 18.3836C110.667 15.9462 107.851 14.75 104.406 14.75V16.75ZM111.22 19.6847C112.899 21.6304 113.789 24.283 113.789 27.75H115.789C115.789 23.9358 114.804 20.7759 112.734 18.3778L111.22 19.6847ZM113.789 27.75C113.789 27.9198 113.782 28.2488 113.766 28.75L115.765 28.8125C115.781 28.3137 115.789 27.9552 115.789 27.75H113.789ZM113.766 28.7812C113.766 28.7822 113.766 28.7832 113.766 28.7842C113.766 28.7852 113.766 28.7861 113.766 28.7871C113.766 28.7881 113.766 28.7891 113.766 28.79C113.766 28.791 113.766 28.792 113.766 28.7929C113.766 28.7939 113.766 28.7949 113.766 28.7959C113.766 28.7968 113.766 28.7978 113.766 28.7988C113.766 28.7997 113.766 28.8007 113.766 28.8017C113.766 28.8026 113.766 28.8036 113.766 28.8046C113.766 28.8056 113.766 28.8065 113.766 28.8075C113.766 28.8085 113.766 28.8094 113.766 28.8104C113.766 28.8114 113.766 28.8123 113.766 28.8133C113.766 28.8142 113.766 28.8152 113.766 28.8162C113.766 28.8171 113.766 28.8181 113.766 28.8191C113.766 28.82 113.766 28.821 113.766 28.822C113.766 28.8229 113.766 28.8239 113.766 28.8248C113.766 28.8258 113.766 28.8268 113.766 28.8277C113.766 28.8287 113.766 28.8296 113.766 28.8306C113.766 28.8315 113.766 28.8325 113.766 28.8335C113.766 28.8344 113.766 28.8354 113.766 28.8363C113.766 28.8373 113.766 28.8382 113.766 28.8392C113.766 28.8402 113.766 28.8411 113.766 28.8421C113.766 28.843 113.766 28.844 113.766 28.8449C113.766 28.8459 113.766 28.8468 113.766 28.8478C113.766 28.8487 113.766 28.8497 113.766 28.8506C113.766 28.8516 113.766 28.8525 113.766 28.8535C113.766 28.8544 113.766 28.8554 113.766 28.8563C113.766 28.8573 113.766 28.8582 113.766 28.8592C113.766 28.8601 113.766 28.8611 113.766 28.862C113.766 28.863 113.766 28.8639 113.766 28.8649C113.766 28.8658 113.766 28.8667 113.766 28.8677C113.766 28.8686 113.766 28.8696 113.766 28.8705C113.766 28.8715 113.766 28.8724 113.766 28.8734C113.766 28.8743 113.766 28.8752 113.766 28.8762C113.766 28.8771 113.766 28.8781 113.766 28.879C113.766 28.8799 113.766 28.8809 113.766 28.8818C113.766 28.8828 113.766 28.8837 113.766 28.8846C113.766 28.8856 113.766 28.8865 113.766 28.8874C113.766 28.8884 113.766 28.8893 113.766 28.8903C113.766 28.8912 113.766 28.8921 113.766 28.8931C113.766 28.894 113.766 28.8949 113.766 28.8959C113.766 28.8968 113.766 28.8977 113.766 28.8987C113.766 28.8996 113.766 28.9005 113.766 28.9015C113.766 28.9024 113.766 28.9033 113.766 28.9043C113.766 28.9052 113.766 28.9061 113.766 28.907C113.766 28.908 113.766 28.9089 113.766 28.9098C113.766 28.9108 113.766 28.9117 113.766 28.9126C113.766 28.9135 113.766 28.9145 113.766 28.9154C113.766 28.9163 113.766 28.9172 113.766 28.9182C113.766 28.9191 113.766 28.92 113.766 28.9209C113.766 28.9219 113.766 28.9228 113.766 28.9237C113.766 28.9246 113.766 28.9256 113.766 28.9265C113.766 28.9274 113.766 28.9283 113.766 28.9292C113.766 28.9302 113.766 28.9311 113.766 28.932C113.766 28.9329 113.766 28.9338 113.766 28.9348C113.766 28.9357 113.766 28.9366 113.766 28.9375C113.766 28.9384 113.766 28.9393 113.766 28.9403C113.766 28.9412 113.766 28.9421 113.766 28.943C113.766 28.9439 113.766 28.9448 113.766 28.9458C113.766 28.9467 113.766 28.9476 113.766 28.9485C113.766 28.9494 113.766 28.9503 113.766 28.9512C113.766 28.9521 113.766 28.9531 113.766 28.954C113.766 28.9549 113.766 28.9558 113.766 28.9567C113.766 28.9576 113.766 28.9585 113.766 28.9594C113.766 28.9603 113.766 28.9613 113.766 28.9622C113.766 28.9631 113.766 28.964 113.766 28.9649C113.766 28.9658 113.766 28.9667 113.766 28.9676C113.766 28.9685 113.766 28.9694 113.766 28.9703C113.766 28.9712 113.766 28.9721 113.766 28.973C113.766 28.9739 113.766 28.9748 113.766 28.9757C113.766 28.9766 113.766 28.9775 113.766 28.9784C113.766 28.9793 113.766 28.9802 113.766 28.9811C113.766 28.982 113.766 28.9829 113.766 28.9838C113.766 28.9847 113.766 28.9856 113.766 28.9865C113.766 28.9874 113.766 28.9883 113.766 28.9892C113.766 28.9901 113.766 28.991 113.766 28.9919C113.766 28.9928 113.766 28.9937 113.766 28.9946C113.766 28.9955 113.766 28.9964 113.766 28.9973C113.766 28.9982 113.766 28.9991 113.766 29C113.766 29.0009 113.766 29.0018 113.766 29.0027C113.766 29.0035 113.766 29.0044 113.766 29.0053C113.766 29.0062 113.766 29.0071 113.766 29.008C113.766 29.0089 113.766 29.0098 113.766 29.0107C113.766 29.0116 113.766 29.0124 113.766 29.0133C113.766 29.0142 113.766 29.0151 113.766 29.016C113.766 29.0169 113.766 29.0178 113.766 29.0186C113.766 29.0195 113.766 29.0204 113.766 29.0213C113.766 29.0222 113.766 29.0231 113.766 29.024C113.766 29.0248 113.766 29.0257 113.766 29.0266C113.766 29.0275 113.766 29.0284 113.766 29.0292C113.766 29.0301 113.766 29.031 113.766 29.0319C113.766 29.0328 113.766 29.0336 113.766 29.0345C113.766 29.0354 113.766 29.0363 113.766 29.0372C113.766 29.038 113.766 29.0389 113.766 29.0398C113.766 29.0407 113.766 29.0415 113.766 29.0424C113.766 29.0433 113.766 29.0442 113.766 29.045C113.766 29.0459 113.766 29.0468 113.766 29.0477C113.766 29.0485 113.766 29.0494 113.766 29.0503C113.766 29.0512 113.766 29.052 113.766 29.0529C113.766 29.0538 113.766 29.0546 113.766 29.0555C113.766 29.0564 113.766 29.0573 113.766 29.0581C113.766 29.059 113.766 29.0599 113.766 29.0607C113.766 29.0616 113.766 29.0625 113.766 29.0633C113.766 29.0642 113.766 29.0651 113.766 29.0659C113.766 29.0668 113.766 29.0677 113.766 29.0685C113.766 29.0694 113.766 29.0703 113.766 29.0711C113.766 29.072 113.766 29.0729 113.766 29.0737C113.766 29.0746 113.766 29.0754 113.766 29.0763C113.766 29.0772 113.766 29.078 113.766 29.0789C113.766 29.0797 113.766 29.0806 113.766 29.0815C113.766 29.0823 113.766 29.0832 113.766 29.084C113.766 29.0849 113.766 29.0858 113.766 29.0866C113.766 29.0875 113.766 29.0883 113.766 29.0892C113.766 29.09 113.766 29.0909 113.766 29.0918C113.766 29.0926 113.766 29.0935 113.766 29.0943C113.766 29.0952 113.766 29.096 113.766 29.0969C113.766 29.0977 113.766 29.0986 113.766 29.0994C113.766 29.1003 113.766 29.1011 113.766 29.102C113.766 29.1028 113.766 29.1037 113.766 29.1045C113.766 29.1054 113.766 29.1062 113.766 29.1071C113.766 29.1079 113.766 29.1088 113.766 29.1096C113.766 29.1105 113.766 29.1113 113.766 29.1122C113.766 29.113 113.766 29.1139 113.766 29.1147C113.766 29.1156 113.766 29.1164 113.766 29.1173C113.766 29.1181 113.766 29.1189 113.766 29.1198C113.766 29.1206 113.766 29.1215 113.766 29.1223C113.766 29.1232 113.766 29.124 113.766 29.1248C113.766 29.1257 113.766 29.1265 113.766 29.1274C113.766 29.1282 113.766 29.129 113.766 29.1299C113.766 29.1307 113.766 29.1316 113.766 29.1324C113.766 29.1332 113.766 29.1341 113.766 29.1349C113.766 29.1357 113.766 29.1366 113.766 29.1374C113.766 29.1383 113.766 29.1391 113.766 29.1399C113.766 29.1408 113.766 29.1416 113.766 29.1424C113.766 29.1433 113.766 29.1441 113.766 29.1449C113.766 29.1458 113.766 29.1466 113.766 29.1474C113.766 29.1483 113.766 29.1491 113.766 29.1499C113.766 29.1508 113.766 29.1516 113.766 29.1524C113.766 29.1532 113.766 29.1541 113.766 29.1549C113.766 29.1557 113.766 29.1566 113.766 29.1574C113.766 29.1582 113.766 29.159 113.766 29.1599C113.766 29.1607 113.766 29.1615 113.766 29.1623C113.766 29.1632 113.766 29.164 113.766 29.1648C113.766 29.1656 113.766 29.1665 113.766 29.1673C113.766 29.1681 113.766 29.1689 113.766 29.1698C113.766 29.1706 113.766 29.1714 113.766 29.1722C113.766 29.173 113.766 29.1739 113.766 29.1747C113.766 29.1755 113.766 29.1763 113.766 29.1771C113.766 29.178 113.766 29.1788 113.766 29.1796C113.766 29.1804 113.766 29.1812 113.766 29.182C113.766 29.1829 113.766 29.1837 113.766 29.1845C113.766 29.1853 113.766 29.1861 113.766 29.1869C113.766 29.1878 113.766 29.1886 113.766 29.1894C113.766 29.1902 113.766 29.191 113.766 29.1918C113.766 29.1926 113.766 29.1934 113.766 29.1943C113.766 29.1951 113.766 29.1959 113.766 29.1967C113.766 29.1975 113.766 29.1983 113.766 29.1991C113.766 29.1999 113.766 29.2007 113.766 29.2015C113.766 29.2024 113.766 29.2032 113.766 29.204C113.766 29.2048 113.766 29.2056 113.766 29.2064C113.766 29.2072 113.766 29.208 113.766 29.2088C113.766 29.2096 113.766 29.2104 113.766 29.2112C113.766 29.212 113.766 29.2128 113.766 29.2136C113.766 29.2144 113.766 29.2152 113.766 29.216C113.766 29.2168 113.766 29.2176 113.766 29.2184C113.766 29.2192 113.766 29.22 113.766 29.2208C113.766 29.2216 113.766 29.2224 113.766 29.2232C113.766 29.224 113.766 29.2248 113.766 29.2256C113.766 29.2264 113.766 29.2272 113.766 29.228C113.766 29.2288 113.766 29.2296 113.766 29.2304C113.766 29.2312 113.766 29.232 113.766 29.2328C113.766 29.2336 113.766 29.2344 113.766 29.2352C113.766 29.236 113.766 29.2368 113.766 29.2375C113.766 29.2383 113.766 29.2391 113.766 29.2399C113.766 29.2407 113.766 29.2415 113.766 29.2423C113.766 29.2431 113.766 29.2439 113.766 29.2447C113.766 29.2454 113.766 29.2462 113.766 29.247C113.766 29.2478 113.766 29.2486 113.766 29.2494C113.766 29.2502 113.766 29.251 113.766 29.2517C113.766 29.2525 113.766 29.2533 113.766 29.2541C113.766 29.2549 113.766 29.2557 113.766 29.2565C113.766 29.2572 113.766 29.258 113.766 29.2588C113.766 29.2596 113.766 29.2604 113.766 29.2611C113.766 29.2619 113.766 29.2627 113.766 29.2635C113.766 29.2643 113.766 29.265 113.766 29.2658C113.766 29.2666 113.766 29.2674 113.766 29.2682C113.766 29.2689 113.766 29.2697 113.766 29.2705C113.766 29.2713 113.766 29.272 113.766 29.2728C113.766 29.2736 113.766 29.2744 113.766 29.2752C113.766 29.2759 113.766 29.2767 113.766 29.2775C113.766 29.2782 113.766 29.279 113.766 29.2798C113.766 29.2806 113.766 29.2813 113.766 29.2821C113.766 29.2829 113.766 29.2837 113.766 29.2844C113.766 29.2852 113.766 29.286 113.766 29.2867C113.766 29.2875 113.766 29.2883 113.766 29.289C113.766 29.2898 113.766 29.2906 113.766 29.2913C113.766 29.2921 113.766 29.2929 113.766 29.2936C113.766 29.2944 113.766 29.2952 113.766 29.2959C113.766 29.2967 113.766 29.2975 113.766 29.2982C113.766 29.299 113.766 29.2998 113.766 29.3005C113.766 29.3013 113.766 29.3021 113.766 29.3028C113.766 29.3036 113.766 29.3043 113.766 29.3051C113.766 29.3059 113.766 29.3066 113.766 29.3074C113.766 29.3081 113.766 29.3089 113.766 29.3097C113.766 29.3104 113.766 29.3112 113.766 29.3119C113.766 29.3127 113.766 29.3134 113.766 29.3142C113.766 29.315 113.766 29.3157 113.766 29.3165C113.766 29.3172 113.766 29.318 113.766 29.3187C113.766 29.3195 113.766 29.3202 113.766 29.321C113.766 29.3218 113.766 29.3225 113.766 29.3233C113.766 29.324 113.766 29.3248 113.766 29.3255C113.766 29.3263 113.766 29.327 113.766 29.3278C113.766 29.3285 113.766 29.3293 113.766 29.33C113.766 29.3308 113.766 29.3315 113.766 29.3323C113.766 29.333 113.766 29.3338 113.766 29.3345C113.766 29.3352 113.766 29.336 113.766 29.3367C113.766 29.3375 113.766 29.3382 113.766 29.339C113.766 29.3397 113.766 29.3405 113.766 29.3412C113.766 29.342 113.766 29.3427 113.766 29.3434C113.766 29.3442 113.766 29.3449 113.766 29.3457C113.766 29.3464 113.766 29.3471 113.766 29.3479C113.766 29.3486 113.766 29.3494 113.766 29.3501C113.766 29.3508 113.766 29.3516 113.766 29.3523C113.766 29.3531 113.766 29.3538 113.766 29.3545C113.766 29.3553 113.766 29.356 113.766 29.3568C113.766 29.3575 113.766 29.3582 113.766 29.359C113.766 29.3597 113.766 29.3604 113.766 29.3612C113.766 29.3619 113.766 29.3626 113.766 29.3634C113.766 29.3641 113.766 29.3648 113.766 29.3656C113.766 29.3663 113.766 29.367 113.766 29.3678C113.766 29.3685 113.766 29.3692 113.766 29.3699C113.766 29.3707 113.766 29.3714 113.766 29.3721C113.766 29.3729 113.766 29.3736 113.766 29.3743C113.766 29.375 113.766 29.3758 113.766 29.3765C113.766 29.3772 113.766 29.378 113.766 29.3787C113.766 29.3794 113.766 29.3801 113.766 29.3809C113.766 29.3816 113.766 29.3823 113.766 29.383C113.766 29.3837 113.766 29.3845 113.766 29.3852C113.766 29.3859 113.766 29.3866 113.766 29.3874C113.766 29.3881 113.766 29.3888 113.766 29.3895C113.766 29.3902 113.766 29.391 113.766 29.3917C113.766 29.3924 113.766 29.3931 113.766 29.3938C113.766 29.3946 113.766 29.3953 113.766 29.396C113.766 29.3967 113.766 29.3974 113.766 29.3981C113.766 29.3989 113.766 29.3996 113.766 29.4003C113.766 29.401 113.766 29.4017 113.766 29.4024C113.766 29.4031 113.766 29.4039 113.766 29.4046C113.766 29.4053 113.766 29.406 113.766 29.4067C113.766 29.4074 113.766 29.4081 113.766 29.4088C113.766 29.4095 113.766 29.4103 113.766 29.411C113.766 29.4117 113.766 29.4124 113.766 29.4131C113.766 29.4138 113.766 29.4145 113.766 29.4152C113.766 29.4159 113.766 29.4166 113.766 29.4173C113.766 29.418 113.766 29.4187 113.766 29.4194C113.766 29.4202 113.766 29.4209 113.766 29.4216C113.766 29.4223 113.766 29.423 113.766 29.4237C113.766 29.4244 113.766 29.4251 113.766 29.4258C113.766 29.4265 113.766 29.4272 113.766 29.4279C113.766 29.4286 113.766 29.4293 113.766 29.43C113.766 29.4307 113.766 29.4314 113.766 29.4321C113.766 29.4328 113.766 29.4335 113.766 29.4342C113.766 29.4349 113.766 29.4356 113.766 29.4363C113.766 29.437 113.766 29.4377 113.766 29.4384C113.766 29.4391 113.766 29.4397 113.766 29.4404C113.766 29.4411 113.766 29.4418 113.766 29.4425C113.766 29.4432 113.766 29.4439 113.766 29.4446C113.766 29.4453 113.766 29.446 113.766 29.4467C113.766 29.4474 113.766 29.4481 113.766 29.4487C113.766 29.4494 113.766 29.4501 113.766 29.4508C113.766 29.4515 113.766 29.4522 113.766 29.4529C113.766 29.4536 113.766 29.4543 113.766 29.4549C113.766 29.4556 113.766 29.4563 113.766 29.457C113.766 29.4577 113.766 29.4584 113.766 29.4591C113.766 29.4597 113.766 29.4604 113.766 29.4611C113.766 29.4618 113.766 29.4625 113.766 29.4632C113.766 29.4638 113.766 29.4645 113.766 29.4652C113.766 29.4659 113.766 29.4666 113.766 29.4673C113.766 29.4679 113.766 29.4686 113.766 29.4693C113.766 29.47 113.766 29.4706 113.766 29.4713C113.766 29.472 113.766 29.4727 113.766 29.4734C113.766 29.474 113.766 29.4747 113.766 29.4754C113.766 29.4761 113.766 29.4767 113.766 29.4774C113.766 29.4781 113.766 29.4788 113.766 29.4794C113.766 29.4801 113.766 29.4808 113.766 29.4815C113.766 29.4821 113.766 29.4828 113.766 29.4835C113.766 29.4842 113.766 29.4848 113.766 29.4855C113.766 29.4862 113.766 29.4868 113.766 29.4875C113.766 29.4882 113.766 29.4888 113.766 29.4895C113.766 29.4902 113.766 29.4908 113.766 29.4915C113.766 29.4922 113.766 29.4929 113.766 29.4935C113.766 29.4942 113.766 29.4948 113.766 29.4955C113.766 29.4962 113.766 29.4968 113.766 29.4975C113.766 29.4982 113.766 29.4988 113.766 29.4995C113.766 29.5002 113.766 29.5008 113.766 29.5015C113.766 29.5022 113.766 29.5028 113.766 29.5035C113.766 29.5041 113.766 29.5048 113.766 29.5055C113.766 29.5061 113.766 29.5068 113.766 29.5074C113.766 29.5081 113.766 29.5088 113.766 29.5094C113.766 29.5101 113.766 29.5107 113.766 29.5114C113.766 29.512 113.766 29.5127 113.766 29.5134C113.766 29.514 113.766 29.5147 113.766 29.5153C113.766 29.516 113.766 29.5166 113.766 29.5173C113.766 29.5179 113.766 29.5186 113.766 29.5192C113.766 29.5199 113.766 29.5205 113.766 29.5212C113.766 29.5218 113.766 29.5225 113.766 29.5231C113.766 29.5238 113.766 29.5244 113.766 29.5251C113.766 29.5257 113.766 29.5264 113.766 29.527C113.766 29.5277 113.766 29.5283 113.766 29.529C113.766 29.5296 113.766 29.5303 113.766 29.5309C113.766 29.5316 113.766 29.5322 113.766 29.5329C113.766 29.5335 113.766 29.5342 113.766 29.5348C113.766 29.5354 113.766 29.5361 113.766 29.5367C113.766 29.5374 113.766 29.538 113.766 29.5387C113.766 29.5393 113.766 29.5399 113.766 29.5406C113.766 29.5412 113.766 29.5419 113.766 29.5425C113.766 29.5431 113.766 29.5438 113.766 29.5444C113.766 29.5451 113.766 29.5457 113.766 29.5463C113.766 29.547 113.766 29.5476 113.766 29.5482C113.766 29.5489 113.766 29.5495 113.766 29.5501C113.766 29.5508 113.766 29.5514 113.766 29.5521C113.766 29.5527 113.766 29.5533 113.766 29.554C113.766 29.5546 113.766 29.5552 113.766 29.5559C113.766 29.5565 113.766 29.5571 113.766 29.5577C113.766 29.5584 113.766 29.559 113.766 29.5596C113.766 29.5603 113.766 29.5609 113.766 29.5615C113.766 29.5622 113.766 29.5628 113.766 29.5634C113.766 29.564 113.766 29.5647 113.766 29.5653C113.766 29.5659 113.766 29.5665 113.766 29.5672C113.766 29.5678 113.766 29.5684 113.766 29.569C113.766 29.5697 113.766 29.5703 113.766 29.5709C113.766 29.5715 113.766 29.5722 113.766 29.5728C113.766 29.5734 113.766 29.574 113.766 29.5747C113.766 29.5753 113.766 29.5759 113.766 29.5765C113.766 29.5771 113.766 29.5778 113.766 29.5784C113.766 29.579 113.766 29.5796 113.766 29.5802C113.766 29.5809 113.766 29.5815 113.766 29.5821C113.766 29.5827 113.766 29.5833 113.766 29.5839C113.766 29.5846 113.766 29.5852 113.766 29.5858C113.766 29.5864 113.766 29.587 113.766 29.5876C113.766 29.5882 113.766 29.5889 113.766 29.5895C113.766 29.5901 113.766 29.5907 113.766 29.5913C113.766 29.5919 113.766 29.5925 113.766 29.5931C113.766 29.5938 113.766 29.5944 113.766 29.595C113.766 29.5956 113.766 29.5962 113.766 29.5968C113.766 29.5974 113.766 29.598 113.766 29.5986C113.766 29.5992 113.766 29.5998 113.766 29.6004C113.766 29.601 113.766 29.6017 113.766 29.6023C113.766 29.6029 113.766 29.6035 113.766 29.6041C113.766 29.6047 113.766 29.6053 113.766 29.6059C113.766 29.6065 113.766 29.6071 113.766 29.6077C113.766 29.6083 113.766 29.6089 113.766 29.6095C113.766 29.6101 113.766 29.6107 113.766 29.6113C113.766 29.6119 113.766 29.6125 113.766 29.6131C113.766 29.6137 113.766 29.6143 113.766 29.6149C113.766 29.6155 113.766 29.6161 113.766 29.6167C113.766 29.6173 113.766 29.6179 113.766 29.6185C113.766 29.6191 113.766 29.6197 113.766 29.6203C113.766 29.6209 113.766 29.6214 113.766 29.622C113.766 29.6226 113.766 29.6232 113.766 29.6238C113.766 29.6244 113.766 29.625 113.766 29.6256C113.766 29.6262 113.766 29.6268 113.766 29.6274C113.766 29.628 113.766 29.6285 113.766 29.6291C113.766 29.6297 113.766 29.6303 113.766 29.6309C113.766 29.6315 113.766 29.6321 113.766 29.6327C113.766 29.6333 113.766 29.6338 113.766 29.6344C113.766 29.635 113.766 29.6356 113.766 29.6362C113.766 29.6368 113.766 29.6374 113.766 29.6379C113.766 29.6385 113.766 29.6391 113.766 29.6397C113.766 29.6403 113.766 29.6409 113.766 29.6414C113.766 29.642 113.766 29.6426 113.766 29.6432C113.766 29.6438 113.766 29.6443 113.766 29.6449C113.766 29.6455 113.766 29.6461 113.766 29.6467C113.766 29.6472 113.766 29.6478 113.766 29.6484C113.766 29.649 113.766 29.6495 113.766 29.6501C113.766 29.6507 113.766 29.6513 113.766 29.6518C113.766 29.6524 113.766 29.653 113.766 29.6536C113.766 29.6541 113.766 29.6547 113.766 29.6553C113.766 29.6559 113.766 29.6564 113.766 29.657C113.766 29.6576 113.766 29.6582 113.766 29.6587C113.766 29.6593 113.766 29.6599 113.766 29.6604C113.766 29.661 113.766 29.6616 113.766 29.6621C113.766 29.6627 113.766 29.6633 113.766 29.6638C113.766 29.6644 113.766 29.665 113.766 29.6656C113.766 29.6661 113.766 29.6667 113.766 29.6672C113.766 29.6678 113.766 29.6684 113.766 29.6689C113.766 29.6695 113.766 29.6701 113.766 29.6706C113.766 29.6712 113.766 29.6718 113.766 29.6723C113.766 29.6729 113.766 29.6735 113.766 29.674C113.766 29.6746 113.766 29.6751 113.766 29.6757C113.766 29.6763 113.766 29.6768 113.766 29.6774C113.766 29.6779 113.766 29.6785 113.766 29.679C113.766 29.6796 113.766 29.6802 113.766 29.6807C113.766 29.6813 113.766 29.6818 113.766 29.6824C113.766 29.6829 113.766 29.6835 113.766 29.6841C113.766 29.6846 113.766 29.6852 113.766 29.6857C113.766 29.6863 113.766 29.6868 113.766 29.6874C113.766 29.6879 113.766 29.6885 113.766 29.689C113.766 29.6896 113.766 29.6901 113.766 29.6907C113.766 29.6912 113.766 29.6918 113.766 29.6923C113.766 29.6929 113.766 29.6934 113.766 29.694C113.766 29.6945 113.766 29.6951 113.766 29.6956C113.766 29.6962 113.766 29.6967 113.766 29.6973C113.766 29.6978 113.766 29.6984 113.766 29.6989C113.766 29.6995 113.766 29.7 113.766 29.7005C113.766 29.7011 113.766 29.7016 113.766 29.7022C113.766 29.7027 113.766 29.7033 113.766 29.7038C113.766 29.7043 113.766 29.7049 113.766 29.7054C113.766 29.706 113.766 29.7065 113.766 29.707C113.766 29.7076 113.766 29.7081 113.766 29.7087C113.766 29.7092 113.766 29.7097 113.766 29.7103C113.766 29.7108 113.766 29.7114 113.766 29.7119C113.766 29.7124 113.766 29.713 113.766 29.7135C113.766 29.714 113.766 29.7146 113.766 29.7151C113.766 29.7156 113.766 29.7162 113.766 29.7167C113.766 29.7172 113.766 29.7178 113.766 29.7183C113.766 29.7188 113.766 29.7194 113.766 29.7199C113.766 29.7204 113.766 29.721 113.766 29.7215C113.766 29.722 113.766 29.7226 113.766 29.7231C113.766 29.7236 113.766 29.7241 113.766 29.7247C113.766 29.7252 113.766 29.7257 113.766 29.7263C113.766 29.7268 113.766 29.7273 113.766 29.7278C113.766 29.7284 113.766 29.7289 113.766 29.7294C113.766 29.7299 113.766 29.7305 113.766 29.731C113.766 29.7315 113.766 29.732 113.766 29.7326C113.766 29.7331 113.766 29.7336 113.766 29.7341C113.766 29.7346 113.766 29.7352 113.766 29.7357C113.766 29.7362 113.766 29.7367 113.766 29.7372C113.766 29.7378 113.766 29.7383 113.766 29.7388C113.766 29.7393 113.766 29.7398 113.766 29.7404C113.766 29.7409 113.766 29.7414 113.766 29.7419C113.766 29.7424 113.766 29.7429 113.766 29.7435C113.766 29.744 113.766 29.7445 113.766 29.745C113.766 29.7455 113.766 29.746 113.766 29.7465C113.766 29.747 113.766 29.7476 113.766 29.7481C113.766 29.7486 113.766 29.7491 113.766 29.7496C113.766 29.7501 113.766 29.7506 113.766 29.7511C113.766 29.7516 113.766 29.7522 113.766 29.7527C113.766 29.7532 113.766 29.7537 113.766 29.7542C113.766 29.7547 113.766 29.7552 113.766 29.7557C113.766 29.7562 113.766 29.7567 113.766 29.7572C113.766 29.7577 113.766 29.7582 113.766 29.7587C113.766 29.7593 113.766 29.7598 113.766 29.7603C113.766 29.7608 113.766 29.7613 113.766 29.7618C113.766 29.7623 113.766 29.7628 113.766 29.7633C113.766 29.7638 113.766 29.7643 113.766 29.7648C113.766 29.7653 113.766 29.7658 113.766 29.7663C113.766 29.7668 113.766 29.7673 113.766 29.7678C113.766 29.7683 113.766 29.7688 113.766 29.7693C113.766 29.7698 113.766 29.7703 113.766 29.7708C113.766 29.7712 113.766 29.7717 113.766 29.7722C113.766 29.7727 113.766 29.7732 113.766 29.7737C113.766 29.7742 113.766 29.7747 113.766 29.7752C113.766 29.7757 113.766 29.7762 113.766 29.7767C113.766 29.7772 113.766 29.7777 113.766 29.7782C113.766 29.7786 113.766 29.7791 113.766 29.7796C113.766 29.7801 113.766 29.7806 113.766 29.7811C113.766 29.7816 113.766 29.7821 113.766 29.7826C113.766 29.783 113.766 29.7835 113.766 29.784C113.766 29.7845 113.766 29.785 113.766 29.7855C113.766 29.786 113.766 29.7864 113.766 29.7869C113.766 29.7874 113.766 29.7879 113.766 29.7884C113.766 29.7889 113.766 29.7893 113.766 29.7898C113.766 29.7903 113.766 29.7908 113.766 29.7913C113.766 29.7917 113.766 29.7922 113.766 29.7927C113.766 29.7932 113.766 29.7937 113.766 29.7941C113.766 29.7946 113.766 29.7951 113.766 29.7956C113.766 29.7961 113.766 29.7965 113.766 29.797C113.766 29.7975 113.766 29.798 113.766 29.7984C113.766 29.7989 113.766 29.7994 113.766 29.7999C113.766 29.8003 113.766 29.8008 113.766 29.8013C113.766 29.8018 113.766 29.8022 113.766 29.8027C113.766 29.8032 113.766 29.8036 113.766 29.8041C113.766 29.8046 113.766 29.8051 113.766 29.8055C113.766 29.806 113.766 29.8065 113.766 29.8069C113.766 29.8074 113.766 29.8079 113.766 29.8083C113.766 29.8088 113.766 29.8093 113.766 29.8097C113.766 29.8102 113.766 29.8107 113.766 29.8111C113.766 29.8116 113.766 29.8121 113.766 29.8125C113.766 29.813 113.766 29.8135 113.766 29.8139C113.766 29.8144 113.766 29.8149 113.766 29.8153C113.766 29.8158 113.766 29.8162 113.766 29.8167C113.766 29.8172 113.766 29.8176 113.766 29.8181C113.766 29.8186 113.766 29.819 113.766 29.8195C113.766 29.8199 113.766 29.8204 113.766 29.8209C113.766 29.8213 113.766 29.8218 113.766 29.8222C113.766 29.8227 113.766 29.8231 113.766 29.8236C113.766 29.8241 113.766 29.8245 113.766 29.825C113.766 29.8254 113.766 29.8259 113.766 29.8263C113.766 29.8268 113.766 29.8272 113.766 29.8277C113.766 29.8281 113.766 29.8286 113.766 29.829C113.766 29.8295 113.766 29.8299 113.766 29.8304C113.766 29.8308 113.766 29.8313 113.766 29.8317C113.766 29.8322 113.766 29.8326 113.766 29.8331C113.766 29.8335 113.766 29.834 113.766 29.8344C113.766 29.8349 113.766 29.8353 113.766 29.8358C113.766 29.8362 113.766 29.8367 113.766 29.8371C113.766 29.8376 113.766 29.838 113.766 29.8385C113.766 29.8389 113.766 29.8393 113.766 29.8398C113.766 29.8402 113.766 29.8407 113.766 29.8411C113.766 29.8416 113.766 29.842 113.766 29.8424C113.766 29.8429 113.766 29.8433 113.766 29.8438C113.766 29.8442 113.766 29.8446 113.766 29.8451C113.766 29.8455 113.766 29.846 113.766 29.8464C113.766 29.8468 113.766 29.8473 113.766 29.8477C113.766 29.8481 113.766 29.8486 113.766 29.849C113.766 29.8495 113.766 29.8499 113.766 29.8503C113.766 29.8508 113.766 29.8512 113.766 29.8516C113.766 29.8521 113.766 29.8525 113.766 29.8529C113.766 29.8534 113.766 29.8538 113.766 29.8542C113.766 29.8547 113.766 29.8551 113.766 29.8555C113.766 29.8559 113.766 29.8564 113.766 29.8568C113.766 29.8572 113.766 29.8577 113.766 29.8581C113.766 29.8585 113.766 29.8589 113.766 29.8594H115.766C115.766 29.8589 115.766 29.8585 115.766 29.8581C115.766 29.8577 115.766 29.8572 115.766 29.8568C115.766 29.8564 115.766 29.8559 115.766 29.8555C115.766 29.8551 115.766 29.8547 115.766 29.8542C115.766 29.8538 115.766 29.8534 115.766 29.8529C115.766 29.8525 115.766 29.8521 115.766 29.8516C115.766 29.8512 115.766 29.8508 115.766 29.8503C115.766 29.8499 115.766 29.8495 115.766 29.849C115.766 29.8486 115.766 29.8481 115.766 29.8477C115.766 29.8473 115.766 29.8468 115.766 29.8464C115.766 29.846 115.766 29.8455 115.766 29.8451C115.766 29.8446 115.766 29.8442 115.766 29.8438C115.766 29.8433 115.766 29.8429 115.766 29.8424C115.766 29.842 115.766 29.8416 115.766 29.8411C115.766 29.8407 115.766 29.8402 115.766 29.8398C115.766 29.8393 115.766 29.8389 115.766 29.8385C115.766 29.838 115.766 29.8376 115.766 29.8371C115.766 29.8367 115.766 29.8362 115.766 29.8358C115.766 29.8353 115.766 29.8349 115.766 29.8344C115.766 29.834 115.766 29.8335 115.766 29.8331C115.766 29.8326 115.766 29.8322 115.766 29.8317C115.766 29.8313 115.766 29.8308 115.766 29.8304C115.766 29.8299 115.766 29.8295 115.766 29.829C115.766 29.8286 115.766 29.8281 115.766 29.8277C115.766 29.8272 115.766 29.8268 115.766 29.8263C115.766 29.8259 115.766 29.8254 115.766 29.825C115.766 29.8245 115.766 29.8241 115.766 29.8236C115.766 29.8231 115.766 29.8227 115.766 29.8222C115.766 29.8218 115.766 29.8213 115.766 29.8209C115.766 29.8204 115.766 29.8199 115.766 29.8195C115.766 29.819 115.766 29.8186 115.766 29.8181C115.766 29.8176 115.766 29.8172 115.766 29.8167C115.766 29.8162 115.766 29.8158 115.766 29.8153C115.766 29.8149 115.766 29.8144 115.766 29.8139C115.766 29.8135 115.766 29.813 115.766 29.8125C115.766 29.8121 115.766 29.8116 115.766 29.8111C115.766 29.8107 115.766 29.8102 115.766 29.8097C115.766 29.8093 115.766 29.8088 115.766 29.8083C115.766 29.8079 115.766 29.8074 115.766 29.8069C115.766 29.8065 115.766 29.806 115.766 29.8055C115.766 29.8051 115.766 29.8046 115.766 29.8041C115.766 29.8036 115.766 29.8032 115.766 29.8027C115.766 29.8022 115.766 29.8018 115.766 29.8013C115.766 29.8008 115.766 29.8003 115.766 29.7999C115.766 29.7994 115.766 29.7989 115.766 29.7984C115.766 29.798 115.766 29.7975 115.766 29.797C115.766 29.7965 115.766 29.7961 115.766 29.7956C115.766 29.7951 115.766 29.7946 115.766 29.7941C115.766 29.7937 115.766 29.7932 115.766 29.7927C115.766 29.7922 115.766 29.7917 115.766 29.7913C115.766 29.7908 115.766 29.7903 115.766 29.7898C115.766 29.7893 115.766 29.7889 115.766 29.7884C115.766 29.7879 115.766 29.7874 115.766 29.7869C115.766 29.7864 115.766 29.786 115.766 29.7855C115.766 29.785 115.766 29.7845 115.766 29.784C115.766 29.7835 115.766 29.783 115.766 29.7826C115.766 29.7821 115.766 29.7816 115.766 29.7811C115.766 29.7806 115.766 29.7801 115.766 29.7796C115.766 29.7791 115.766 29.7786 115.766 29.7782C115.766 29.7777 115.766 29.7772 115.766 29.7767C115.766 29.7762 115.766 29.7757 115.766 29.7752C115.766 29.7747 115.766 29.7742 115.766 29.7737C115.766 29.7732 115.766 29.7727 115.766 29.7722C115.766 29.7717 115.766 29.7712 115.766 29.7708C115.766 29.7703 115.766 29.7698 115.766 29.7693C115.766 29.7688 115.766 29.7683 115.766 29.7678C115.766 29.7673 115.766 29.7668 115.766 29.7663C115.766 29.7658 115.766 29.7653 115.766 29.7648C115.766 29.7643 115.766 29.7638 115.766 29.7633C115.766 29.7628 115.766 29.7623 115.766 29.7618C115.766 29.7613 115.766 29.7608 115.766 29.7603C115.766 29.7598 115.766 29.7593 115.766 29.7587C115.766 29.7582 115.766 29.7577 115.766 29.7572C115.766 29.7567 115.766 29.7562 115.766 29.7557C115.766 29.7552 115.766 29.7547 115.766 29.7542C115.766 29.7537 115.766 29.7532 115.766 29.7527C115.766 29.7522 115.766 29.7516 115.766 29.7511C115.766 29.7506 115.766 29.7501 115.766 29.7496C115.766 29.7491 115.766 29.7486 115.766 29.7481C115.766 29.7476 115.766 29.747 115.766 29.7465C115.766 29.746 115.766 29.7455 115.766 29.745C115.766 29.7445 115.766 29.744 115.766 29.7435C115.766 29.7429 115.766 29.7424 115.766 29.7419C115.766 29.7414 115.766 29.7409 115.766 29.7404C115.766 29.7398 115.766 29.7393 115.766 29.7388C115.766 29.7383 115.766 29.7378 115.766 29.7372C115.766 29.7367 115.766 29.7362 115.766 29.7357C115.766 29.7352 115.766 29.7346 115.766 29.7341C115.766 29.7336 115.766 29.7331 115.766 29.7326C115.766 29.732 115.766 29.7315 115.766 29.731C115.766 29.7305 115.766 29.7299 115.766 29.7294C115.766 29.7289 115.766 29.7284 115.766 29.7278C115.766 29.7273 115.766 29.7268 115.766 29.7263C115.766 29.7257 115.766 29.7252 115.766 29.7247C115.766 29.7241 115.766 29.7236 115.766 29.7231C115.766 29.7226 115.766 29.722 115.766 29.7215C115.766 29.721 115.766 29.7204 115.766 29.7199C115.766 29.7194 115.766 29.7188 115.766 29.7183C115.766 29.7178 115.766 29.7172 115.766 29.7167C115.766 29.7162 115.766 29.7156 115.766 29.7151C115.766 29.7146 115.766 29.714 115.766 29.7135C115.766 29.713 115.766 29.7124 115.766 29.7119C115.766 29.7114 115.766 29.7108 115.766 29.7103C115.766 29.7097 115.766 29.7092 115.766 29.7087C115.766 29.7081 115.766 29.7076 115.766 29.707C115.766 29.7065 115.766 29.706 115.766 29.7054C115.766 29.7049 115.766 29.7043 115.766 29.7038C115.766 29.7033 115.766 29.7027 115.766 29.7022C115.766 29.7016 115.766 29.7011 115.766 29.7005C115.766 29.7 115.766 29.6995 115.766 29.6989C115.766 29.6984 115.766 29.6978 115.766 29.6973C115.766 29.6967 115.766 29.6962 115.766 29.6956C115.766 29.6951 115.766 29.6945 115.766 29.694C115.766 29.6934 115.766 29.6929 115.766 29.6923C115.766 29.6918 115.766 29.6912 115.766 29.6907C115.766 29.6901 115.766 29.6896 115.766 29.689C115.766 29.6885 115.766 29.6879 115.766 29.6874C115.766 29.6868 115.766 29.6863 115.766 29.6857C115.766 29.6852 115.766 29.6846 115.766 29.6841C115.766 29.6835 115.766 29.6829 115.766 29.6824C115.766 29.6818 115.766 29.6813 115.766 29.6807C115.766 29.6802 115.766 29.6796 115.766 29.679C115.766 29.6785 115.766 29.6779 115.766 29.6774C115.766 29.6768 115.766 29.6763 115.766 29.6757C115.766 29.6751 115.766 29.6746 115.766 29.674C115.766 29.6735 115.766 29.6729 115.766 29.6723C115.766 29.6718 115.766 29.6712 115.766 29.6706C115.766 29.6701 115.766 29.6695 115.766 29.6689C115.766 29.6684 115.766 29.6678 115.766 29.6672C115.766 29.6667 115.766 29.6661 115.766 29.6656C115.766 29.665 115.766 29.6644 115.766 29.6638C115.766 29.6633 115.766 29.6627 115.766 29.6621C115.766 29.6616 115.766 29.661 115.766 29.6604C115.766 29.6599 115.766 29.6593 115.766 29.6587C115.766 29.6582 115.766 29.6576 115.766 29.657C115.766 29.6564 115.766 29.6559 115.766 29.6553C115.766 29.6547 115.766 29.6541 115.766 29.6536C115.766 29.653 115.766 29.6524 115.766 29.6518C115.766 29.6513 115.766 29.6507 115.766 29.6501C115.766 29.6495 115.766 29.649 115.766 29.6484C115.766 29.6478 115.766 29.6472 115.766 29.6467C115.766 29.6461 115.766 29.6455 115.766 29.6449C115.766 29.6443 115.766 29.6438 115.766 29.6432C115.766 29.6426 115.766 29.642 115.766 29.6414C115.766 29.6409 115.766 29.6403 115.766 29.6397C115.766 29.6391 115.766 29.6385 115.766 29.6379C115.766 29.6374 115.766 29.6368 115.766 29.6362C115.766 29.6356 115.766 29.635 115.766 29.6344C115.766 29.6338 115.766 29.6333 115.766 29.6327C115.766 29.6321 115.766 29.6315 115.766 29.6309C115.766 29.6303 115.766 29.6297 115.766 29.6291C115.766 29.6285 115.766 29.628 115.766 29.6274C115.766 29.6268 115.766 29.6262 115.766 29.6256C115.766 29.625 115.766 29.6244 115.766 29.6238C115.766 29.6232 115.766 29.6226 115.766 29.622C115.766 29.6214 115.766 29.6209 115.766 29.6203C115.766 29.6197 115.766 29.6191 115.766 29.6185C115.766 29.6179 115.766 29.6173 115.766 29.6167C115.766 29.6161 115.766 29.6155 115.766 29.6149C115.766 29.6143 115.766 29.6137 115.766 29.6131C115.766 29.6125 115.766 29.6119 115.766 29.6113C115.766 29.6107 115.766 29.6101 115.766 29.6095C115.766 29.6089 115.766 29.6083 115.766 29.6077C115.766 29.6071 115.766 29.6065 115.766 29.6059C115.766 29.6053 115.766 29.6047 115.766 29.6041C115.766 29.6035 115.766 29.6029 115.766 29.6023C115.766 29.6017 115.766 29.601 115.766 29.6004C115.766 29.5998 115.766 29.5992 115.766 29.5986C115.766 29.598 115.766 29.5974 115.766 29.5968C115.766 29.5962 115.766 29.5956 115.766 29.595C115.766 29.5944 115.766 29.5938 115.766 29.5931C115.766 29.5925 115.766 29.5919 115.766 29.5913C115.766 29.5907 115.766 29.5901 115.766 29.5895C115.766 29.5889 115.766 29.5882 115.766 29.5876C115.766 29.587 115.766 29.5864 115.766 29.5858C115.766 29.5852 115.766 29.5846 115.766 29.5839C115.766 29.5833 115.766 29.5827 115.766 29.5821C115.766 29.5815 115.766 29.5809 115.766 29.5802C115.766 29.5796 115.766 29.579 115.766 29.5784C115.766 29.5778 115.766 29.5771 115.766 29.5765C115.766 29.5759 115.766 29.5753 115.766 29.5747C115.766 29.574 115.766 29.5734 115.766 29.5728C115.766 29.5722 115.766 29.5715 115.766 29.5709C115.766 29.5703 115.766 29.5697 115.766 29.569C115.766 29.5684 115.766 29.5678 115.766 29.5672C115.766 29.5665 115.766 29.5659 115.766 29.5653C115.766 29.5647 115.766 29.564 115.766 29.5634C115.766 29.5628 115.766 29.5622 115.766 29.5615C115.766 29.5609 115.766 29.5603 115.766 29.5596C115.766 29.559 115.766 29.5584 115.766 29.5577C115.766 29.5571 115.766 29.5565 115.766 29.5559C115.766 29.5552 115.766 29.5546 115.766 29.554C115.766 29.5533 115.766 29.5527 115.766 29.5521C115.766 29.5514 115.766 29.5508 115.766 29.5501C115.766 29.5495 115.766 29.5489 115.766 29.5482C115.766 29.5476 115.766 29.547 115.766 29.5463C115.766 29.5457 115.766 29.5451 115.766 29.5444C115.766 29.5438 115.766 29.5431 115.766 29.5425C115.766 29.5419 115.766 29.5412 115.766 29.5406C115.766 29.5399 115.766 29.5393 115.766 29.5387C115.766 29.538 115.766 29.5374 115.766 29.5367C115.766 29.5361 115.766 29.5354 115.766 29.5348C115.766 29.5342 115.766 29.5335 115.766 29.5329C115.766 29.5322 115.766 29.5316 115.766 29.5309C115.766 29.5303 115.766 29.5296 115.766 29.529C115.766 29.5283 115.766 29.5277 115.766 29.527C115.766 29.5264 115.766 29.5257 115.766 29.5251C115.766 29.5244 115.766 29.5238 115.766 29.5231C115.766 29.5225 115.766 29.5218 115.766 29.5212C115.766 29.5205 115.766 29.5199 115.766 29.5192C115.766 29.5186 115.766 29.5179 115.766 29.5173C115.766 29.5166 115.766 29.516 115.766 29.5153C115.766 29.5147 115.766 29.514 115.766 29.5134C115.766 29.5127 115.766 29.512 115.766 29.5114C115.766 29.5107 115.766 29.5101 115.766 29.5094C115.766 29.5088 115.766 29.5081 115.766 29.5074C115.766 29.5068 115.766 29.5061 115.766 29.5055C115.766 29.5048 115.766 29.5041 115.766 29.5035C115.766 29.5028 115.766 29.5022 115.766 29.5015C115.766 29.5008 115.766 29.5002 115.766 29.4995C115.766 29.4988 115.766 29.4982 115.766 29.4975C115.766 29.4968 115.766 29.4962 115.766 29.4955C115.766 29.4948 115.766 29.4942 115.766 29.4935C115.766 29.4929 115.766 29.4922 115.766 29.4915C115.766 29.4908 115.766 29.4902 115.766 29.4895C115.766 29.4888 115.766 29.4882 115.766 29.4875C115.766 29.4868 115.766 29.4862 115.766 29.4855C115.766 29.4848 115.766 29.4842 115.766 29.4835C115.766 29.4828 115.766 29.4821 115.766 29.4815C115.766 29.4808 115.766 29.4801 115.766 29.4794C115.766 29.4788 115.766 29.4781 115.766 29.4774C115.766 29.4767 115.766 29.4761 115.766 29.4754C115.766 29.4747 115.766 29.474 115.766 29.4734C115.766 29.4727 115.766 29.472 115.766 29.4713C115.766 29.4706 115.766 29.47 115.766 29.4693C115.766 29.4686 115.766 29.4679 115.766 29.4673C115.766 29.4666 115.766 29.4659 115.766 29.4652C115.766 29.4645 115.766 29.4638 115.766 29.4632C115.766 29.4625 115.766 29.4618 115.766 29.4611C115.766 29.4604 115.766 29.4597 115.766 29.4591C115.766 29.4584 115.766 29.4577 115.766 29.457C115.766 29.4563 115.766 29.4556 115.766 29.4549C115.766 29.4543 115.766 29.4536 115.766 29.4529C115.766 29.4522 115.766 29.4515 115.766 29.4508C115.766 29.4501 115.766 29.4494 115.766 29.4487C115.766 29.4481 115.766 29.4474 115.766 29.4467C115.766 29.446 115.766 29.4453 115.766 29.4446C115.766 29.4439 115.766 29.4432 115.766 29.4425C115.766 29.4418 115.766 29.4411 115.766 29.4404C115.766 29.4397 115.766 29.4391 115.766 29.4384C115.766 29.4377 115.766 29.437 115.766 29.4363C115.766 29.4356 115.766 29.4349 115.766 29.4342C115.766 29.4335 115.766 29.4328 115.766 29.4321C115.766 29.4314 115.766 29.4307 115.766 29.43C115.766 29.4293 115.766 29.4286 115.766 29.4279C115.766 29.4272 115.766 29.4265 115.766 29.4258C115.766 29.4251 115.766 29.4244 115.766 29.4237C115.766 29.423 115.766 29.4223 115.766 29.4216C115.766 29.4209 115.766 29.4202 115.766 29.4194C115.766 29.4187 115.766 29.418 115.766 29.4173C115.766 29.4166 115.766 29.4159 115.766 29.4152C115.766 29.4145 115.766 29.4138 115.766 29.4131C115.766 29.4124 115.766 29.4117 115.766 29.411C115.766 29.4103 115.766 29.4095 115.766 29.4088C115.766 29.4081 115.766 29.4074 115.766 29.4067C115.766 29.406 115.766 29.4053 115.766 29.4046C115.766 29.4039 115.766 29.4031 115.766 29.4024C115.766 29.4017 115.766 29.401 115.766 29.4003C115.766 29.3996 115.766 29.3989 115.766 29.3981C115.766 29.3974 115.766 29.3967 115.766 29.396C115.766 29.3953 115.766 29.3946 115.766 29.3938C115.766 29.3931 115.766 29.3924 115.766 29.3917C115.766 29.391 115.766 29.3902 115.766 29.3895C115.766 29.3888 115.766 29.3881 115.766 29.3874C115.766 29.3866 115.766 29.3859 115.766 29.3852C115.766 29.3845 115.766 29.3837 115.766 29.383C115.766 29.3823 115.766 29.3816 115.766 29.3809C115.766 29.3801 115.766 29.3794 115.766 29.3787C115.766 29.378 115.766 29.3772 115.766 29.3765C115.766 29.3758 115.766 29.375 115.766 29.3743C115.766 29.3736 115.766 29.3729 115.766 29.3721C115.766 29.3714 115.766 29.3707 115.766 29.3699C115.766 29.3692 115.766 29.3685 115.766 29.3678C115.766 29.367 115.766 29.3663 115.766 29.3656C115.766 29.3648 115.766 29.3641 115.766 29.3634C115.766 29.3626 115.766 29.3619 115.766 29.3612C115.766 29.3604 115.766 29.3597 115.766 29.359C115.766 29.3582 115.766 29.3575 115.766 29.3568C115.766 29.356 115.766 29.3553 115.766 29.3545C115.766 29.3538 115.766 29.3531 115.766 29.3523C115.766 29.3516 115.766 29.3508 115.766 29.3501C115.766 29.3494 115.766 29.3486 115.766 29.3479C115.766 29.3471 115.766 29.3464 115.766 29.3457C115.766 29.3449 115.766 29.3442 115.766 29.3434C115.766 29.3427 115.766 29.342 115.766 29.3412C115.766 29.3405 115.766 29.3397 115.766 29.339C115.766 29.3382 115.766 29.3375 115.766 29.3367C115.766 29.336 115.766 29.3352 115.766 29.3345C115.766 29.3338 115.766 29.333 115.766 29.3323C115.766 29.3315 115.766 29.3308 115.766 29.33C115.766 29.3293 115.766 29.3285 115.766 29.3278C115.766 29.327 115.766 29.3263 115.766 29.3255C115.766 29.3248 115.766 29.324 115.766 29.3233C115.766 29.3225 115.766 29.3218 115.766 29.321C115.766 29.3202 115.766 29.3195 115.766 29.3187C115.766 29.318 115.766 29.3172 115.766 29.3165C115.766 29.3157 115.766 29.315 115.766 29.3142C115.766 29.3134 115.766 29.3127 115.766 29.3119C115.766 29.3112 115.766 29.3104 115.766 29.3097C115.766 29.3089 115.766 29.3081 115.766 29.3074C115.766 29.3066 115.766 29.3059 115.766 29.3051C115.766 29.3043 115.766 29.3036 115.766 29.3028C115.766 29.3021 115.766 29.3013 115.766 29.3005C115.766 29.2998 115.766 29.299 115.766 29.2982C115.766 29.2975 115.766 29.2967 115.766 29.2959C115.766 29.2952 115.766 29.2944 115.766 29.2936C115.766 29.2929 115.766 29.2921 115.766 29.2913C115.766 29.2906 115.766 29.2898 115.766 29.289C115.766 29.2883 115.766 29.2875 115.766 29.2867C115.766 29.286 115.766 29.2852 115.766 29.2844C115.766 29.2837 115.766 29.2829 115.766 29.2821C115.766 29.2813 115.766 29.2806 115.766 29.2798C115.766 29.279 115.766 29.2782 115.766 29.2775C115.766 29.2767 115.766 29.2759 115.766 29.2752C115.766 29.2744 115.766 29.2736 115.766 29.2728C115.766 29.272 115.766 29.2713 115.766 29.2705C115.766 29.2697 115.766 29.2689 115.766 29.2682C115.766 29.2674 115.766 29.2666 115.766 29.2658C115.766 29.265 115.766 29.2643 115.766 29.2635C115.766 29.2627 115.766 29.2619 115.766 29.2611C115.766 29.2604 115.766 29.2596 115.766 29.2588C115.766 29.258 115.766 29.2572 115.766 29.2565C115.766 29.2557 115.766 29.2549 115.766 29.2541C115.766 29.2533 115.766 29.2525 115.766 29.2517C115.766 29.251 115.766 29.2502 115.766 29.2494C115.766 29.2486 115.766 29.2478 115.766 29.247C115.766 29.2462 115.766 29.2454 115.766 29.2447C115.766 29.2439 115.766 29.2431 115.766 29.2423C115.766 29.2415 115.766 29.2407 115.766 29.2399C115.766 29.2391 115.766 29.2383 115.766 29.2375C115.766 29.2368 115.766 29.236 115.766 29.2352C115.766 29.2344 115.766 29.2336 115.766 29.2328C115.766 29.232 115.766 29.2312 115.766 29.2304C115.766 29.2296 115.766 29.2288 115.766 29.228C115.766 29.2272 115.766 29.2264 115.766 29.2256C115.766 29.2248 115.766 29.224 115.766 29.2232C115.766 29.2224 115.766 29.2216 115.766 29.2208C115.766 29.22 115.766 29.2192 115.766 29.2184C115.766 29.2176 115.766 29.2168 115.766 29.216C115.766 29.2152 115.766 29.2144 115.766 29.2136C115.766 29.2128 115.766 29.212 115.766 29.2112C115.766 29.2104 115.766 29.2096 115.766 29.2088C115.766 29.208 115.766 29.2072 115.766 29.2064C115.766 29.2056 115.766 29.2048 115.766 29.204C115.766 29.2032 115.766 29.2024 115.766 29.2015C115.766 29.2007 115.766 29.1999 115.766 29.1991C115.766 29.1983 115.766 29.1975 115.766 29.1967C115.766 29.1959 115.766 29.1951 115.766 29.1943C115.766 29.1934 115.766 29.1926 115.766 29.1918C115.766 29.191 115.766 29.1902 115.766 29.1894C115.766 29.1886 115.766 29.1878 115.766 29.1869C115.766 29.1861 115.766 29.1853 115.766 29.1845C115.766 29.1837 115.766 29.1829 115.766 29.182C115.766 29.1812 115.766 29.1804 115.766 29.1796C115.766 29.1788 115.766 29.178 115.766 29.1771C115.766 29.1763 115.766 29.1755 115.766 29.1747C115.766 29.1739 115.766 29.173 115.766 29.1722C115.766 29.1714 115.766 29.1706 115.766 29.1698C115.766 29.1689 115.766 29.1681 115.766 29.1673C115.766 29.1665 115.766 29.1656 115.766 29.1648C115.766 29.164 115.766 29.1632 115.766 29.1623C115.766 29.1615 115.766 29.1607 115.766 29.1599C115.766 29.159 115.766 29.1582 115.766 29.1574C115.766 29.1566 115.766 29.1557 115.766 29.1549C115.766 29.1541 115.766 29.1532 115.766 29.1524C115.766 29.1516 115.766 29.1508 115.766 29.1499C115.766 29.1491 115.766 29.1483 115.766 29.1474C115.766 29.1466 115.766 29.1458 115.766 29.1449C115.766 29.1441 115.766 29.1433 115.766 29.1424C115.766 29.1416 115.766 29.1408 115.766 29.1399C115.766 29.1391 115.766 29.1383 115.766 29.1374C115.766 29.1366 115.766 29.1357 115.766 29.1349C115.766 29.1341 115.766 29.1332 115.766 29.1324C115.766 29.1316 115.766 29.1307 115.766 29.1299C115.766 29.129 115.766 29.1282 115.766 29.1274C115.766 29.1265 115.766 29.1257 115.766 29.1248C115.766 29.124 115.766 29.1232 115.766 29.1223C115.766 29.1215 115.766 29.1206 115.766 29.1198C115.766 29.1189 115.766 29.1181 115.766 29.1173C115.766 29.1164 115.766 29.1156 115.766 29.1147C115.766 29.1139 115.766 29.113 115.766 29.1122C115.766 29.1113 115.766 29.1105 115.766 29.1096C115.766 29.1088 115.766 29.1079 115.766 29.1071C115.766 29.1062 115.766 29.1054 115.766 29.1045C115.766 29.1037 115.766 29.1028 115.766 29.102C115.766 29.1011 115.766 29.1003 115.766 29.0994C115.766 29.0986 115.766 29.0977 115.766 29.0969C115.766 29.096 115.766 29.0952 115.766 29.0943C115.766 29.0935 115.766 29.0926 115.766 29.0918C115.766 29.0909 115.766 29.09 115.766 29.0892C115.766 29.0883 115.766 29.0875 115.766 29.0866C115.766 29.0858 115.766 29.0849 115.766 29.084C115.766 29.0832 115.766 29.0823 115.766 29.0815C115.766 29.0806 115.766 29.0797 115.766 29.0789C115.766 29.078 115.766 29.0772 115.766 29.0763C115.766 29.0754 115.766 29.0746 115.766 29.0737C115.766 29.0729 115.766 29.072 115.766 29.0711C115.766 29.0703 115.766 29.0694 115.766 29.0685C115.766 29.0677 115.766 29.0668 115.766 29.0659C115.766 29.0651 115.766 29.0642 115.766 29.0633C115.766 29.0625 115.766 29.0616 115.766 29.0607C115.766 29.0599 115.766 29.059 115.766 29.0581C115.766 29.0573 115.766 29.0564 115.766 29.0555C115.766 29.0546 115.766 29.0538 115.766 29.0529C115.766 29.052 115.766 29.0512 115.766 29.0503C115.766 29.0494 115.766 29.0485 115.766 29.0477C115.766 29.0468 115.766 29.0459 115.766 29.045C115.766 29.0442 115.766 29.0433 115.766 29.0424C115.766 29.0415 115.766 29.0407 115.766 29.0398C115.766 29.0389 115.766 29.038 115.766 29.0372C115.766 29.0363 115.766 29.0354 115.766 29.0345C115.766 29.0336 115.766 29.0328 115.766 29.0319C115.766 29.031 115.766 29.0301 115.766 29.0292C115.766 29.0284 115.766 29.0275 115.766 29.0266C115.766 29.0257 115.766 29.0248 115.766 29.024C115.766 29.0231 115.766 29.0222 115.766 29.0213C115.766 29.0204 115.766 29.0195 115.766 29.0186C115.766 29.0178 115.766 29.0169 115.766 29.016C115.766 29.0151 115.766 29.0142 115.766 29.0133C115.766 29.0124 115.766 29.0116 115.766 29.0107C115.766 29.0098 115.766 29.0089 115.766 29.008C115.766 29.0071 115.766 29.0062 115.766 29.0053C115.766 29.0044 115.766 29.0035 115.766 29.0027C115.766 29.0018 115.766 29.0009 115.766 29C115.766 28.9991 115.766 28.9982 115.766 28.9973C115.766 28.9964 115.766 28.9955 115.766 28.9946C115.766 28.9937 115.766 28.9928 115.766 28.9919C115.766 28.991 115.766 28.9901 115.766 28.9892C115.766 28.9883 115.766 28.9874 115.766 28.9865C115.766 28.9856 115.766 28.9847 115.766 28.9838C115.766 28.9829 115.766 28.982 115.766 28.9811C115.766 28.9802 115.766 28.9793 115.766 28.9784C115.766 28.9775 115.766 28.9766 115.766 28.9757C115.766 28.9748 115.766 28.9739 115.766 28.973C115.766 28.9721 115.766 28.9712 115.766 28.9703C115.766 28.9694 115.766 28.9685 115.766 28.9676C115.766 28.9667 115.766 28.9658 115.766 28.9649C115.766 28.964 115.766 28.9631 115.766 28.9622C115.766 28.9613 115.766 28.9603 115.766 28.9594C115.766 28.9585 115.766 28.9576 115.766 28.9567C115.766 28.9558 115.766 28.9549 115.766 28.954C115.766 28.9531 115.766 28.9521 115.766 28.9512C115.766 28.9503 115.766 28.9494 115.766 28.9485C115.766 28.9476 115.766 28.9467 115.766 28.9458C115.766 28.9448 115.766 28.9439 115.766 28.943C115.766 28.9421 115.766 28.9412 115.766 28.9403C115.766 28.9393 115.766 28.9384 115.766 28.9375C115.766 28.9366 115.766 28.9357 115.766 28.9348C115.766 28.9338 115.766 28.9329 115.766 28.932C115.766 28.9311 115.766 28.9302 115.766 28.9292C115.766 28.9283 115.766 28.9274 115.766 28.9265C115.766 28.9256 115.766 28.9246 115.766 28.9237C115.766 28.9228 115.766 28.9219 115.766 28.9209C115.766 28.92 115.766 28.9191 115.766 28.9182C115.766 28.9172 115.766 28.9163 115.766 28.9154C115.766 28.9145 115.766 28.9135 115.766 28.9126C115.766 28.9117 115.766 28.9108 115.766 28.9098C115.766 28.9089 115.766 28.908 115.766 28.907C115.766 28.9061 115.766 28.9052 115.766 28.9043C115.766 28.9033 115.766 28.9024 115.766 28.9015C115.766 28.9005 115.766 28.8996 115.766 28.8987C115.766 28.8977 115.766 28.8968 115.766 28.8959C115.766 28.8949 115.766 28.894 115.766 28.8931C115.766 28.8921 115.766 28.8912 115.766 28.8903C115.766 28.8893 115.766 28.8884 115.766 28.8874C115.766 28.8865 115.766 28.8856 115.766 28.8846C115.766 28.8837 115.766 28.8828 115.766 28.8818C115.766 28.8809 115.766 28.8799 115.766 28.879C115.766 28.8781 115.766 28.8771 115.766 28.8762C115.766 28.8752 115.766 28.8743 115.766 28.8734C115.766 28.8724 115.766 28.8715 115.766 28.8705C115.766 28.8696 115.766 28.8686 115.766 28.8677C115.766 28.8667 115.766 28.8658 115.766 28.8649C115.766 28.8639 115.766 28.863 115.766 28.862C115.766 28.8611 115.766 28.8601 115.766 28.8592C115.766 28.8582 115.766 28.8573 115.766 28.8563C115.766 28.8554 115.766 28.8544 115.766 28.8535C115.766 28.8525 115.766 28.8516 115.766 28.8506C115.766 28.8497 115.766 28.8487 115.766 28.8478C115.766 28.8468 115.766 28.8459 115.766 28.8449C115.766 28.844 115.766 28.843 115.766 28.8421C115.766 28.8411 115.766 28.8402 115.766 28.8392C115.766 28.8382 115.766 28.8373 115.766 28.8363C115.766 28.8354 115.766 28.8344 115.766 28.8335C115.766 28.8325 115.766 28.8315 115.766 28.8306C115.766 28.8296 115.766 28.8287 115.766 28.8277C115.766 28.8268 115.766 28.8258 115.766 28.8248C115.766 28.8239 115.766 28.8229 115.766 28.822C115.766 28.821 115.766 28.82 115.766 28.8191C115.766 28.8181 115.766 28.8171 115.766 28.8162C115.766 28.8152 115.766 28.8142 115.766 28.8133C115.766 28.8123 115.766 28.8114 115.766 28.8104C115.766 28.8094 115.766 28.8085 115.766 28.8075C115.766 28.8065 115.766 28.8056 115.766 28.8046C115.766 28.8036 115.766 28.8026 115.766 28.8017C115.766 28.8007 115.766 28.7997 115.766 28.7988C115.766 28.7978 115.766 28.7968 115.766 28.7959C115.766 28.7949 115.766 28.7939 115.766 28.7929C115.766 28.792 115.766 28.791 115.766 28.79C115.766 28.7891 115.766 28.7881 115.766 28.7871C115.766 28.7861 115.766 28.7852 115.766 28.7842C115.766 28.7832 115.766 28.7822 115.766 28.7812H113.766ZM114.766 28.8594H97.1172V30.8594H114.766V28.8594ZM96.1173 29.8754C96.1667 32.9556 96.9609 35.4946 98.6186 37.3662L100.116 36.0401C98.8672 34.6304 98.1614 32.6069 98.1171 29.8433L96.1173 29.8754ZM98.6253 37.3737C100.309 39.2363 102.562 40.1406 105.273 40.1406V38.1406C103.048 38.1406 101.363 37.42 100.109 36.0326L98.6253 37.3737ZM105.273 40.1406C108.175 40.1406 111.06 39.3721 113.918 37.8695L112.988 36.0992C110.377 37.4717 107.809 38.1406 105.273 38.1406V40.1406ZM112.471 37.1735L113.081 40.3376L115.044 39.9593L114.435 36.7953L112.471 37.1735ZM113.541 39.295C111.103 40.784 108.31 41.5391 105.133 41.5391V43.5391C108.643 43.5391 111.803 42.7003 114.584 41.0018L113.541 39.295Z" fill="#121111"/>
</g>
<defs>
<filter id="filter0_d" x="0.265625" y="0.335938" width="125.523" height="57.2031" filterUnits="userSpaceOnUse" color-interpolation-filters="sRGB">
<feFlood flood-opacity="0" result="BackgroundImageFix"/>
<feColorMatrix in="SourceAlpha" type="matrix" values="0 0 0 0 0 0 0 0 0 0 0 0 0 0 0 0 0 0 127 0"/>
<feOffset dy="4"/>
<feGaussianBlur stdDeviation="5"/>
<feColorMatrix type="matrix" values="0 0 0 0 0.0879978 0 0 0 0 0.0960692 0 0 0 0 0.0878331 0 0 0 0.25 0"/>
<feBlend mode="normal" in2="BackgroundImageFix" result="effect1_dropShadow"/>
<feBlend mode="normal" in="SourceGraphic" in2="effect1_dropShadow" result="shape"/>
</filter>
</defs>
</svg>
